HIERARCHY
ROOT Hips
{
	OFFSET -3.958830 18.904000 13.208200
	CHANNELS 6 Xposition Yposition Zposition Zrotation Yrotation Xrotation 
	JOINT LHipJoint
	{
		OFFSET 0.000000 0.000000 0.000000
		CHANNELS 3 Zrotation Yrotation Xrotation
		JOINT LeftUpLeg
		{
			OFFSET 1.800000 -1.400000 0.085000
			CHANNELS 3 Zrotation Yrotation Xrotation
			JOINT LeftLeg
			{
				OFFSET 2.215000 -6.000000 0.000000
				CHANNELS 3 Zrotation Yrotation Xrotation
				JOINT LeftFoot
				{
					OFFSET 2.500000 -6.900000 0.000000
					CHANNELS 3 Zrotation Yrotation Xrotation
					JOINT LeftToeBase
					{
						OFFSET 0.200000 -0.500000 1.950000
						CHANNELS 3 Zrotation Yrotation Xrotation
						End Site
						{
							OFFSET 0.000000 0.000000 0.000000
						}
					}
				}
			}
		}
	}
	JOINT RHipJoint
	{
		OFFSET 0.000000 0.000000 0.000000
		CHANNELS 3 Zrotation Yrotation Xrotation
		JOINT RightUpLeg
		{
			OFFSET -1.800000 -1.400000 0.085000
			CHANNELS 3 Zrotation Yrotation Xrotation
			JOINT RightLeg
			{
				OFFSET -2.215000 -6.000000 0.000000
				CHANNELS 3 Zrotation Yrotation Xrotation
				JOINT RightFoot
				{
					OFFSET -2.500000 -6.900000 0.000000
					CHANNELS 3 Zrotation Yrotation Xrotation
					JOINT RightToeBase
					{
						OFFSET -0.200000 -0.500000 1.950000
						CHANNELS 3 Zrotation Yrotation Xrotation
						End Site
						{
							OFFSET 0.000000 0.000000 0.000000
						}
					}
				}
			}
		}
	}
	JOINT LowerBack
	{
		OFFSET 0.000000 0.000000 0.000000
		CHANNELS 3 Zrotation Yrotation Xrotation
		JOINT Spine
		{
			OFFSET -0.087000 1.940000 -0.288900
			CHANNELS 3 Zrotation Yrotation Xrotation
			JOINT Spine1
			{
				OFFSET 0.000000 1.950000 0.060000
				CHANNELS 3 Zrotation Yrotation Xrotation
				JOINT Neck
				{
					OFFSET 0.000000 0.000000 0.000000
					CHANNELS 3 Zrotation Yrotation Xrotation
					JOINT Neck1
					{
						OFFSET 0.000000 1.600000 0.340000
						CHANNELS 3 Zrotation Yrotation Xrotation
						JOINT Head
						{
							OFFSET 0.000000 1.667000 -0.240000
							CHANNELS 3 Zrotation Yrotation Xrotation
							End Site
							{
								OFFSET 0.000000 0.000000 0.000000
							}
						}
					}
				}
				JOINT LeftShoulder
				{
					OFFSET 0.000000 0.000000 0.000000
					CHANNELS 3 Zrotation Yrotation Xrotation
					JOINT LeftArm
					{
						OFFSET 2.700000 1.550000 -0.730000
						CHANNELS 3 Zrotation Yrotation Xrotation
						JOINT LeftForeArm
						{
							OFFSET 5.450000 0.000000 0.000000
							CHANNELS 3 Zrotation Yrotation Xrotation
							JOINT LeftHand
							{
								OFFSET 3.450000 0.000000 0.000000
								CHANNELS 3 Zrotation Yrotation Xrotation
								JOINT LeftHandIndex1
								{
									OFFSET 0.750000 0.000000 0.000000
									CHANNELS 3 Zrotation Yrotation Xrotation
									End Site
									{
										OFFSET 0.000000 0.000000 0.000000
									}
								}
							}
						}
					}
				}
				JOINT RightShoulder
				{
					OFFSET 0.000000 0.000000 0.000000
					CHANNELS 3 Zrotation Yrotation Xrotation
					JOINT RightArm
					{
						OFFSET -2.700000 1.550000 -0.730000
						CHANNELS 3 Zrotation Yrotation Xrotation
						JOINT RightForeArm
						{
							OFFSET -5.450000 0.000000 0.000000
							CHANNELS 3 Zrotation Yrotation Xrotation
							JOINT RightHand
							{
								OFFSET -3.450000 0.000000 0.000000
								CHANNELS 3 Zrotation Yrotation Xrotation
								JOINT RightHandIndex1
								{
									OFFSET -0.750000 0.000000 0.000000
									CHANNELS 3 Zrotation Yrotation Xrotation
									End Site
									{
										OFFSET 0.000000 0.000000 0.000000
									}
								}
							}
						}
					}
				}
			}
		}
	}
}
MOTION
Frames: 6
Frame Time: 0.016667
-1.540260 17.027300 -1.830620 -4.170696 11.385029 -0.072031 -15.425486 12.524435 4.616369 19.072336 -3.367242 -35.527450 -8.029999 12.581801 38.269413 -0.290784 8.374230 1.676480 0.404580 -0.126710 0.179380 18.030929 -10.666760 2.241660 -16.949328 4.108082 -21.486922 5.371569 -10.621796 42.286026 -0.645801 -6.862364 2.258795 -0.005950 0.502470 0.149830 -3.091226 -1.621366 -8.663192 3.356546 2.450759 20.219924 -1.348893 4.210417 2.792021 1.225812 -0.865640 -11.423139 -5.359711 -1.316841 43.799349 1.885020 -5.747560 -4.582050 -24.800673 -17.936116 4.890380 -30.563544 -8.221503 -1.704608 -20.575493 -23.097716 2.133973 -3.715978 2.810612 0.745830 0.210610 -0.242650 0.331880 22.748350 21.425376 7.874896 35.959820 11.835451 -3.888094 26.279061 29.030938 4.382349 1.801602 -1.366920 -0.395820 0.402280 0.060030 -0.273010 
-1.565170 17.018860 -1.827390 -4.051371 11.473909 -0.275404 -15.417340 12.563024 4.570870 18.841486 -3.212239 -35.448553 -7.397056 12.430234 38.542374 -0.282613 8.321523 1.704673 0.410610 -0.107520 0.192750 18.025153 -10.709311 2.253249 -16.887720 4.208660 -21.039827 5.586958 -10.582269 42.070114 -0.642537 -6.832022 2.278716 0.005740 0.496880 0.120320 -3.102084 -1.572123 -8.658222 3.446525 2.650479 20.190570 -1.280344 4.458261 2.847692 1.202888 -1.079721 -11.493058 -5.816968 -1.215113 44.411274 1.785270 -5.803680 -4.408220 -25.455974 -18.131418 4.915865 -31.210000 -8.409881 -1.475957 -18.968671 -21.531110 1.643124 -3.707556 2.766543 0.735740 0.200760 -0.240260 0.336630 23.473971 21.956027 7.908236 36.228187 12.574000 -3.357386 23.787664 26.967024 3.593155 1.821717 -1.330403 -0.401580 0.424990 0.040380 -0.268280 
-1.622310 17.019550 -1.816330 -3.681464 12.257180 -1.019398 -15.432619 12.728976 4.415274 17.950600 -3.069955 -34.923350 -5.696566 11.710163 38.799339 -0.317660 8.075601 1.786589 0.437910 -0.062570 0.218480 17.969589 -10.778062 2.303382 -16.965532 4.388197 -20.149816 6.142261 -10.884470 42.578061 -0.697639 -6.981675 2.234664 0.026120 0.474210 0.109990 -3.024790 -1.624731 -8.631903 2.883371 3.050809 20.602764 -0.648371 4.810197 2.894327 1.233163 -0.921559 -11.660939 -5.593818 -1.219751 45.895605 1.382760 -5.568090 -4.718960 -27.171142 -18.750539 4.978160 -31.820474 -8.677078 -1.025072 -16.152843 -18.438081 0.838279 -3.701607 2.716447 0.740920 0.187030 -0.215950 0.341700 25.251289 22.796600 7.980144 36.417858 13.504170 -2.618255 19.714696 23.435066 2.470640 1.832522 -1.278656 -0.392690 0.437910 0.018570 -0.268340 
-1.694290 17.024430 -1.800430 -3.579710 13.120887 -1.860454 -15.426424 12.817480 4.269586 17.608169 -2.679246 -34.420486 -4.386849 11.184345 38.793410 -0.355760 7.885951 1.840442 0.489490 -0.006270 0.258530 17.949388 -10.820060 2.393315 -16.668024 4.777994 -19.410334 7.102600 -11.356913 43.198714 -0.783953 -7.188793 2.157125 0.057070 0.436390 0.119940 -3.030404 -1.555791 -8.634165 2.994312 3.315238 20.806233 -0.514291 5.149295 3.070727 1.359685 -0.689283 -11.784607 -5.121588 -1.203712 47.725857 1.026650 -5.312360 -5.021980 -28.814323 -19.161324 5.074158 -32.616952 -8.519612 -0.861652 -13.523331 -16.245946 0.246492 -3.675117 2.703936 0.763540 0.164230 -0.177360 0.357650 26.686004 23.392439 7.862243 37.298891 15.007657 -1.489090 15.781236 19.460683 1.583721 1.860000 -1.249906 -0.378990 0.428970 -0.016690 -0.273650 
-1.767840 17.023340 -1.777240 -3.788329 13.906833 -2.549974 -15.412875 12.830532 4.095276 17.439406 -2.169942 -34.060584 -2.831128 10.679827 38.964172 -0.388576 7.726378 1.881242 0.531300 0.043270 0.305770 17.956072 -10.837910 2.523438 -16.259949 5.239561 -18.921312 8.758931 -12.099325 43.507133 -0.864266 -7.419827 2.077479 0.085580 0.397830 0.118170 -3.076785 -1.356806 -8.624691 3.406524 3.638201 20.341584 -0.418323 5.484376 3.495670 1.575395 0.125846 -11.731823 -3.275612 -1.797913 49.001100 0.419250 -4.963530 -5.170700 -29.849569 -19.444571 5.197002 -33.718062 -8.537663 -0.483729 -12.178048 -13.713704 -0.126698 -3.673321 2.687516 0.768420 0.151530 -0.153650 0.357550 27.291755 23.433643 7.477161 39.016835 16.700615 -0.320497 12.234738 16.237079 0.982824 1.897131 -1.233278 -0.367350 0.419980 -0.047270 -0.285980 
-1.836700 17.028600 -1.748110 -4.069632 14.317671 -3.351020 -15.378501 12.833279 3.896728 17.471338 -1.547035 -33.381995 -1.524358 10.302338 39.026708 -0.440897 7.639266 1.918243 0.565040 0.069230 0.360750 17.986422 -10.878163 2.648711 -15.819326 5.760212 -18.472475 10.142465 -12.772837 44.001842 -0.954676 -7.661000 2.006033 0.112870 0.389030 0.116960 -3.181029 -1.084662 -8.597494 4.176539 3.894886 19.848348 -0.781621 5.811305 3.677206 1.919845 1.183048 -11.387669 -0.786899 -2.407360 50.214235 -0.274950 -4.303570 -5.573430 -30.955932 -19.258527 5.193821 -34.440950 -8.300885 -0.121383 -11.468966 -11.278667 -0.408013 -3.689110 2.628369 0.800260 0.152650 -0.131640 0.366280 27.645958 22.804261 6.689318 41.386132 18.669287 0.987882 10.043125 13.457100 0.695747 1.921712 -1.206991 -0.389030 0.448500 -0.071630 -0.308660 
